<svg xmlns="http://www.w3.org/2000/svg" version="1.1" xmlns:xlink="http://www.w3.org/1999/xlink" xmlns:svgjs="http://svgjs.dev/svgjs" viewBox="0 0 2400 800" opacity="0.96"><g fill="hsl(205, 69%, 50%)" transform="matrix(1,0,0,1,9.4296875,237.15020751953125)"><path d="M-10,10C33.75,15.833333333333334,114.58333333333334,43,200,38C285.41666666666663,33,316.66666666666663,-14,400,-14C483.33333333333337,-14,516.6666666666666,37.791666666666664,600,38C683.3333333333334,38.208333333333336,716.6666666666666,-11.541666666666666,800,-13C883.3333333333334,-14.458333333333334,916.6666666666666,31.208333333333332,1000,31C1083.3333333333333,30.791666666666668,1116.6666666666667,-18.583333333333332,1200,-14C1283.3333333333333,-9.416666666666668,1316.6666666666667,51.958333333333336,1400,53C1483.3333333333333,54.041666666666664,1516.6666666666667,-4,1600,-9C1683.3333333333333,-14,1716.6666666666667,27.125,1800,29C1883.3333333333333,30.875,1916.6666666666667,-6.666666666666666,2000,0C2083.3333333333335,6.666666666666666,2116.6666666666665,59.333333333333336,2200,61C2283.3333333333335,62.666666666666664,2306.25,-62.625,2400,8C2493.75,78.625,3254.1666666666665,214.16666666666669,2650,400C2045.8333333333335,585.8333333333333,156.25,795.8333333333334,-500,900" transform="matrix(1,0,0,1,0,48)" opacity="0.05"></path><path d="M-10,10C33.75,15.833333333333334,114.58333333333334,43,200,38C285.41666666666663,33,316.66666666666663,-14,400,-14C483.33333333333337,-14,516.6666666666666,37.791666666666664,600,38C683.3333333333334,38.208333333333336,716.6666666666666,-11.541666666666666,800,-13C883.3333333333334,-14.458333333333334,916.6666666666666,31.208333333333332,1000,31C1083.3333333333333,30.791666666666668,1116.6666666666667,-18.583333333333332,1200,-14C1283.3333333333333,-9.416666666666668,1316.6666666666667,51.958333333333336,1400,53C1483.3333333333333,54.041666666666664,1516.6666666666667,-4,1600,-9C1683.3333333333333,-14,1716.6666666666667,27.125,1800,29C1883.3333333333333,30.875,1916.6666666666667,-6.666666666666666,2000,0C2083.3333333333335,6.666666666666666,2116.6666666666665,59.333333333333336,2200,61C2283.3333333333335,62.666666666666664,2306.25,-62.625,2400,8C2493.75,78.625,3254.1666666666665,214.16666666666669,2650,400C2045.8333333333335,585.8333333333333,156.25,795.8333333333334,-500,900" transform="matrix(1,0,0,1,0,96)" opacity="0.37"></path><path d="M-10,10C33.75,15.833333333333334,114.58333333333334,43,200,38C285.41666666666663,33,316.66666666666663,-14,400,-14C483.33333333333337,-14,516.6666666666666,37.791666666666664,600,38C683.3333333333334,38.208333333333336,716.6666666666666,-11.541666666666666,800,-13C883.3333333333334,-14.458333333333334,916.6666666666666,31.208333333333332,1000,31C1083.3333333333333,30.791666666666668,1116.6666666666667,-18.583333333333332,1200,-14C1283.3333333333333,-9.416666666666668,1316.6666666666667,51.958333333333336,1400,53C1483.3333333333333,54.041666666666664,1516.6666666666667,-4,1600,-9C1683.3333333333333,-14,1716.6666666666667,27.125,1800,29C1883.3333333333333,30.875,1916.6666666666667,-6.666666666666666,2000,0C2083.3333333333335,6.666666666666666,2116.6666666666665,59.333333333333336,2200,61C2283.3333333333335,62.666666666666664,2306.25,-62.625,2400,8C2493.75,78.625,3254.1666666666665,214.16666666666669,2650,400C2045.8333333333335,585.8333333333333,156.25,795.8333333333334,-500,900" transform="matrix(1,0,0,1,0,144)" opacity="0.68"></path><path d="M-10,10C33.75,15.833333333333334,114.58333333333334,43,200,38C285.41666666666663,33,316.66666666666663,-14,400,-14C483.33333333333337,-14,516.6666666666666,37.791666666666664,600,38C683.3333333333334,38.208333333333336,716.6666666666666,-11.541666666666666,800,-13C883.3333333333334,-14.458333333333334,916.6666666666666,31.208333333333332,1000,31C1083.3333333333333,30.791666666666668,1116.6666666666667,-18.583333333333332,1200,-14C1283.3333333333333,-9.416666666666668,1316.6666666666667,51.958333333333336,1400,53C1483.3333333333333,54.041666666666664,1516.6666666666667,-4,1600,-9C1683.3333333333333,-14,1716.6666666666667,27.125,1800,29C1883.3333333333333,30.875,1916.6666666666667,-6.666666666666666,2000,0C2083.3333333333335,6.666666666666666,2116.6666666666665,59.333333333333336,2200,61C2283.3333333333335,62.666666666666664,2306.25,-62.625,2400,8C2493.75,78.625,3254.1666666666665,214.16666666666669,2650,400C2045.8333333333335,585.8333333333333,156.25,795.8333333333334,-500,900" transform="matrix(1,0,0,1,0,192)" opacity="1.00"></path></g></svg>